<?xml version="1.0" encoding="UTF-8"?>
<svg version="1.1" xmlns="http://www.w3.org/2000/svg" width="1024" height="1024">
  <rect x="" y="" width="1024" height="1024"
    fill="#FFFFFF" rx="102.4" ry="102.4" />
  <path
    d="M0 0 C1.67762607 1.77929165 2.92542759 3.62884346 4.23461914 5.69580078 C4.83274414 6.59943359 5.43086914 7.50306641 6.04711914 8.43408203 C7.82011637 11.16375902 9.54136995 13.91608419 11.23461914 16.69580078 C11.79793945 17.57623047 12.36125977 18.45666016 12.94165039 19.36376953 C14.23461914 21.69580078 14.23461914 21.69580078 14.23461914 24.38330078 C13.23461914 26.69580078 13.23461914 26.69580078 11.29345703 27.75708008 C7.00976217 29.07169471 2.73690469 29.52687018 -1.70678711 30.02783203 C-3.18068405 30.20284492 -3.18068405 30.20284492 -4.68435669 30.38139343 C-6.7972457 30.63190895 -8.91048102 30.87951734 -11.02401733 31.12451172 C-16.61423556 31.77389224 -22.20139398 32.44865392 -27.78881836 33.12158203 C-28.9059874 33.25569489 -30.02315643 33.38980774 -31.17417908 33.52798462 C-45.66765337 35.2749365 -60.12374403 37.25580498 -74.56713867 39.37475586 C-76.81889169 39.70361583 -79.07135445 40.02723487 -81.32397461 40.35009766 C-140.34044043 48.84932879 -215.24375664 60.06580122 -262.76538086 98.69580078 C-263.62647461 99.39318359 -264.48756836 100.09056641 -265.37475586 100.80908203 C-272.74674679 107.09761369 -282.55238232 116.62007175 -284.06347656 126.68041992 C-284.20475577 128.92434102 -284.23270757 131.13517153 -284.20288086 133.38330078 C-284.19530762 134.18131104 -284.18773437 134.97932129 -284.17993164 135.80151367 C-283.99672382 142.40167572 -282.71982898 147.75911976 -279.76538086 153.69580078 C-279.36448242 154.59427734 -278.96358398 155.49275391 -278.55053711 156.41845703 C-265.94065627 182.40577667 -233.91888346 194.26344053 -208.97042847 204.66281128 C-187.85407439 213.47506331 -169.16857555 223.64666141 -151.76538086 238.69580078 C-151.11956055 239.23333984 -150.47374023 239.77087891 -149.80834961 240.32470703 C-138.73685569 250.29654919 -131.73752988 267.96626502 -130.52709961 282.57080078 C-129.9807407 305.57538652 -143.57889516 323.71002636 -158.76538086 339.69580078 C-165.68350678 346.94336127 -172.84907728 353.55559096 -180.76538086 359.69580078 C-181.33321289 360.14004395 -181.90104492 360.58428711 -182.48608398 361.04199219 C-199.26219619 374.11749141 -217.20369832 385.34567236 -235.76538086 395.69580078 C-236.64049316 396.18483887 -237.51560547 396.67387695 -238.41723633 397.17773438 C-263.69610439 411.23750601 -289.66984386 423.94810985 -315.97631836 435.95947266 C-319.40091759 437.5254296 -322.81687676 439.10960738 -326.2318573 440.69641113 C-354.01589587 453.60312809 -354.01589587 453.60312809 -367.89038086 459.19580078 C-368.77701416 459.56350586 -369.66364746 459.93121094 -370.57714844 460.31005859 C-376.86492051 462.76519646 -382.63257921 463.79874628 -389.25366211 462.03173828 C-393.79222103 459.64097705 -396.50636028 457.48492441 -398.76538086 452.69580078 C-399.90111271 448.30272688 -400.13119815 444.8618434 -398.76538086 440.50830078 C-392.91694207 432.28393374 -385.01609816 429.4377253 -375.93988037 426.00494385 C-371.98296971 424.50504627 -368.04691385 422.95210567 -364.10913086 421.40283203 C-363.31316498 421.09061707 -362.5171991 420.7784021 -361.69711304 420.45672607 C-338.77960076 411.42648777 -316.66246336 400.45139892 -294.57391357 389.58380127 C-291.91830364 388.27988075 -289.25741661 386.98682125 -286.59741211 385.69189453 C-274.34795305 379.69207196 -262.43459822 373.18673514 -250.63110352 366.35302734 C-247.77952652 364.70398111 -244.91917556 363.0709224 -242.05834961 361.43798828 C-225.93637423 352.15881201 -210.94473675 341.75029642 -196.76538086 329.69580078 C-195.61224342 328.73945827 -194.45856386 327.7837692 -193.30444336 326.82861328 C-180.4899982 316.14705142 -165.18358243 302.64144958 -163.39038086 285.00830078 C-163.73517021 274.38067606 -169.46175022 266.03150983 -176.70288086 258.74658203 C-190.12976206 246.92613126 -208.24530922 240.49153629 -224.51049805 233.54174805 C-258.16695391 219.15408245 -258.16695391 219.15408245 -272.76538086 208.69580078 C-273.58006836 208.12216797 -274.39475586 207.54853516 -275.23413086 206.95751953 C-296.48696365 190.98247355 -312.16309086 170.7796983 -317.20288086 144.32080078 C-317.43373247 142.45064336 -317.62165702 140.57466339 -317.76538086 138.69580078 C-317.8465918 137.67615234 -317.92780273 136.65650391 -318.01147461 135.60595703 C-318.80448859 115.78060754 -309.63434303 100.00225341 -296.76538086 85.69580078 C-296.14147461 85.00099609 -295.51756836 84.30619141 -294.87475586 83.59033203 C-280.98346129 68.96945266 -262.8398938 59.15829263 -244.76538086 50.69580078 C-244.04833984 50.35613281 -243.33129883 50.01646484 -242.5925293 49.66650391 C-176.62374427 18.79483719 -100.67769974 8.38171544 -29.01538086 0.44580078 C-28.22292969 0.35667419 -27.43047852 0.26754761 -26.61401367 0.17572021 C-3.29107434 -2.43132612 -3.29107434 -2.43132612 0 0 Z "
    fill="#010101" transform="translate(604.765380859375,399.30419921875)" />
  <path
    d="M0 0 C1.1048877 -0.03625488 2.20977539 -0.07250977 3.34814453 -0.10986328 C8.05050345 0.56016392 10.38755736 3.15169859 13.3515625 6.6875 C13.93421875 7.51507813 14.516875 8.34265625 15.1171875 9.1953125 C15.71015625 10.01773437 16.303125 10.84015625 16.9140625 11.6875 C18.5558792 14.6621894 19.11315236 16.94073781 19.3671875 20.3203125 C16.7225594 28.12196539 16.7225594 28.12196539 13.3671875 30.3203125 C7.10755269 32.17345586 1.08809745 32.8041698 -5.41015625 33.21484375 C-7.53796762 33.36370525 -9.66573291 33.51322665 -11.79345703 33.66333008 C-13.45275238 33.77736679 -13.45275238 33.77736679 -15.14556885 33.89370728 C-36.51952258 35.38597196 -57.55733201 37.41499592 -78.6328125 41.3203125 C-79.84565918 41.53961426 -81.05850586 41.75891602 -82.30810547 41.98486328 C-100.81473995 45.40549766 -119.00865425 50.09285125 -137.20114136 54.88116455 C-139.71841182 55.54353298 -142.23673195 56.20192634 -144.75613403 56.85614014 C-148.33134735 57.78826216 -151.90053918 58.74068189 -155.46875 59.69921875 C-156.53217117 59.97416672 -157.59559235 60.24911469 -158.6912384 60.53239441 C-165.11591786 62.28881576 -170.60838783 64.67255847 -176.36123657 68.03746033 C-178.6328125 69.3203125 -178.6328125 69.3203125 -181.6328125 70.3203125 C-182.30435934 72.60372993 -182.30435934 72.60372993 -181.6328125 75.3203125 C-161.60753163 91.25880136 -128.61519889 95.40253895 -104.3203125 101.5078125 C40.01673494 137.80761786 40.01673494 137.80761786 91.77294922 177.11132812 C93.38872669 178.33664666 95.01917644 179.54017636 96.65234375 180.7421875 C104.71831483 186.7419572 112.14364322 193.33499389 119.3671875 200.3203125 C119.9329248 200.86196045 120.49866211 201.4036084 121.08154297 201.96166992 C142.97620155 223.30971703 159.17959342 254.20821157 159.60888672 285.1472168 C159.77919265 345.1199498 123.15404168 398.18667874 82.4296875 439.5703125 C81.81512695 440.20251709 81.20056641 440.83472168 80.56738281 441.48608398 C76.20718439 445.83974092 72.29352529 448.94097242 65.9921875 449.7578125 C60.03247333 449.03853665 55.92424924 447.07699754 51.9296875 442.5703125 C49.40721044 437.32356022 48.75649278 433.45774402 50.3671875 427.8203125 C53.26984872 422.01499007 58.14591674 417.48650424 62.7421875 413.0078125 C66.53562634 409.28226518 69.80629687 405.18827533 73.1328125 401.046875 C75.03920001 398.72054898 77.00513368 396.51876553 79.0546875 394.3203125 C89.9221418 382.19474972 99.19394453 368.37731616 107.3671875 354.3203125 C107.75213379 353.66417969 108.13708008 353.00804687 108.53369141 352.33203125 C122.89452358 327.54500629 132.52155383 298.74114265 125.12915039 270.19433594 C120.06224444 252.1682138 110.42262107 237.5081925 97.3671875 224.3203125 C96.60148437 223.49402344 95.83578125 222.66773438 95.046875 221.81640625 C44.6130417 168.56169752 -38.79501884 152.89094556 -106.66992188 135.22680664 C-198.12295565 111.42423984 -198.12295565 111.42423984 -212.4765625 91.3125 C-216.86429725 83.75255162 -216.70049565 75.44640488 -214.9453125 67.01953125 C-212.95928441 60.50701415 -210.26418904 55.31130181 -205.6328125 50.3203125 C-205.11589844 49.75054687 -204.59898437 49.18078125 -204.06640625 48.59375 C-164.74211259 10.06122064 -74.04320967 6.02743534 -22.7578125 1.4453125 C-22.07964478 1.38364899 -21.40147705 1.32198547 -20.70275879 1.25845337 C-13.81266129 0.64413537 -6.91457478 0.20648561 0 0 Z "
    fill="#010101" transform="translate(629.6328125,447.6796875)" />
  <path
    d="M0 0 C0.64839844 0.13422363 1.29679688 0.26844727 1.96484375 0.40673828 C34.41123467 7.12671328 62.22144938 24.72648339 80.76171875 52.51953125 C81.51121529 53.67749211 82.25737689 54.83761911 83 56 C84.06154297 57.64548828 84.06154297 57.64548828 85.14453125 59.32421875 C94.96361549 75.4890974 102.25977899 95.9615157 103 115 C103.06316406 116.23105469 103.12632812 117.46210938 103.19140625 118.73046875 C104.95093769 169.00361707 77.00632006 216.82049867 48.43115234 256.02441406 C46.44597989 258.76477836 44.50362862 261.53441522 42.55981445 264.30419922 C36.33918453 273.16705007 30.00720026 281.94801775 23.65429688 290.71630859 C21.42398907 293.7951603 19.19611841 296.87576733 16.96948242 299.95727539 C15.87147391 301.47656196 14.77268762 302.99528676 13.6730957 304.51342773 C11.1829163 307.9556344 8.70712699 311.40546331 6.27734375 314.890625 C-9.93557016 338.11586337 -9.93557016 338.11586337 -22.50390625 340.46875 C-30.09331037 340.94383007 -36.35826054 338.1979685 -42.01953125 333.2265625 C-47.41252696 327.49307215 -51.69329128 320.81815779 -56.08203125 314.30859375 C-58.97533375 310.01778624 -61.94538404 305.78480014 -64.9375 301.5625 C-65.68422974 300.50687866 -65.68422974 300.50687866 -66.44604492 299.42993164 C-67.96312148 297.28597607 -69.48137127 295.14285634 -71 293 C-78.75395381 282.05880763 -86.46463992 271.09320646 -94 260 C-94.59296875 259.13020508 -95.1859375 258.26041016 -95.796875 257.36425781 C-106.09053562 242.23236748 -115.8404087 226.84581284 -125 211 C-125.44956055 210.22640137 -125.89912109 209.45280273 -126.36230469 208.65576172 C-137.41029569 189.43860577 -144.93176486 168.52815768 -150 147 C-150.26554688 145.94683594 -150.53109375 144.89367187 -150.8046875 143.80859375 C-157.41213087 112.71740474 -147.66566228 80.90110381 -131.75 54.375 C-113.71002175 27.13095121 -86.00827857 7.39371663 -53.95727539 0.6418457 C-50.97862813 0.04552178 -47.99569763 -0.49617813 -45 -1 C-43.95070313 -1.18691406 -42.90140625 -1.37382813 -41.8203125 -1.56640625 C-28.19848604 -3.11244177 -13.38872994 -2.99217828 0 0 Z M-94.54345703 58.67724609 C-115.30352147 82.46807608 -121.82504287 108.91951988 -120 140 C-119.33634512 145.90057254 -117.88312034 151.38024779 -116 157 C-115.41605469 158.75763672 -115.41605469 158.75763672 -114.8203125 160.55078125 C-104.06218922 189.67410316 -85.56900233 215.98962785 -68.31933594 241.54882812 C-65.65548304 245.50474679 -63.01945365 249.47904006 -60.3828125 253.453125 C-59.3992925 254.93419077 -58.41573119 256.41522911 -57.43212891 257.89624023 C-55.9839075 260.07689511 -54.53618846 262.25787098 -53.09051514 264.44021606 C-48.10053406 271.97005088 -43.04576601 279.41026804 -37.68408203 286.68334961 C-34.86314357 290.56387803 -32.32915652 294.61240614 -29.76171875 298.6640625 C-28.14525578 301.26658836 -28.14525578 301.26658836 -25 302 C-20.41252767 297.77986717 -17.06444286 293.01118287 -13.5625 287.875 C-8.78898978 280.96286112 -3.94162456 274.12218939 1.0625 267.375 C1.64330322 266.5900415 2.22410645 265.80508301 2.82250977 264.99633789 C3.98350884 263.42724966 5.14472052 261.85831872 6.30615234 260.28955078 C58.17244723 191.17213198 58.17244723 191.17213198 70.63378906 108.26025391 C65.94433336 83.08245901 51.42058913 60.25325503 30.75 45.25 C-8.75785491 19.28239583 -61.99670709 23.30929733 -94.54345703 58.67724609 Z "
    fill="#010101" transform="translate(715,127)" />
  <path
    d="M0 0 C7.36304397 5.68179872 12.96271211 11.6008834 17 20 C17.61681641 21.17369141 17.61681641 21.17369141 18.24609375 22.37109375 C23.43871584 33.88829361 22.5897187 49.36469665 18.328125 61.0390625 C11.52668786 76.20226647 3.13386367 84.74381422 -12.375 90.8125 C-25.36853251 95.06900203 -40.41477607 94.48034546 -52.7578125 88.7109375 C-65.60540759 82.1646152 -74.12992101 72.85390343 -79.2734375 59.32421875 C-83.55549865 45.62622744 -81.83824124 30.02002623 -75.6796875 17.265625 C-69.06831655 5.34348066 -58.60722332 -2.8507709 -45.5625 -6.875 C-30.36176001 -10.93881881 -13.28026653 -8.94831798 0 0 Z "
    fill="#010101" transform="translate(720,210)" />
  <path
    d="M0 0 C3.6835136 3.06959467 7.75397323 6.84860885 8.55859375 11.7578125 C8.95335712 18.62430262 6.64636965 21.82044861 2.25 26.875 C-0.28224263 29.50240482 -2.92860293 31.97992667 -5.625 34.4375 C-6.29402344 35.05818359 -6.96304688 35.67886719 -7.65234375 36.31835938 C-12.27663181 40.59070259 -16.99846863 44.74528456 -21.75 48.875 C-22.83211947 49.8254204 -23.91415563 50.77593567 -24.99609375 51.7265625 C-33.25778125 58.93209026 -41.81918154 65.66128727 -50.58447266 72.24169922 C-52.76846357 73.88892573 -54.93811226 75.55362109 -57.10546875 77.22265625 C-58.50763358 78.29450494 -59.90997081 79.36612814 -61.3125 80.4375 C-61.94269043 80.92605469 -62.57288086 81.41460938 -63.22216797 81.91796875 C-69.92392256 86.99973341 -75.82952712 90.59066593 -84.421875 90.1953125 C-89.10543339 89.5509303 -91.85193044 87.82161386 -95.0625 84.4375 C-97.98954839 79.99272281 -98.19990897 76.1839259 -97.75 70.875 C-93.79878113 60.99695282 -83.51946311 55.6546826 -75.14404297 49.73168945 C-68.87413764 45.28845614 -62.79858459 40.61345019 -56.75 35.875 C-55.91082031 35.22015625 -55.07164062 34.5653125 -54.20703125 33.890625 C-43.02802008 25.06413005 -32.35263546 15.73256958 -22.16748047 5.77514648 C-15.7389159 -0.39937951 -8.79279386 -3.59705204 0 0 Z "
    fill="#010101" transform="translate(553.75,798.125)" />
  <path
    d="M0 0 C13.85712435 5.93016254 26.66918606 13.85530889 38.58984375 23.02734375 C39.59789062 23.77757812 40.6059375 24.5278125 41.64453125 25.30078125 C48.22006276 30.3794438 55.01108408 36.07288599 57.22265625 44.4140625 C57.56294845 48.77128219 56.67055666 51.4789351 53.96484375 54.90234375 C49.96473322 58.93049243 46.43839802 60.75460623 40.77734375 61.58984375 C34.01184648 61.24648205 29.2419237 56.40341715 24.24609375 52.2734375 C12.99207245 42.99150642 1.56140826 36.01431433 -11.91015625 30.40234375 C-18.95889968 27.45866109 -24.89352829 24.22172369 -28.91015625 17.52734375 C-30.10028747 11.57668763 -29.65311581 7.11382851 -26.73828125 1.828125 C-19.80383577 -7.57416726 -9.07903765 -3.64634778 0 0 Z "
    fill="#010101" transform="translate(535.41015625,613.97265625)" />
  <path
    d="M0 0 C5.14219008 3.27230278 7.10585633 5.88005727 8.75 11.75 C11.1779607 32.45155967 2.79122825 53.89211089 -8.3125 71 C-8.71170654 71.62044189 -9.11091309 72.24088379 -9.5222168 72.88012695 C-12.64625422 77.4616673 -16.09509737 81.0227172 -21.70703125 82.31640625 C-28.2550897 82.30554711 -33.09441298 80.88913999 -38.25 76.75 C-41.27670492 73.54009978 -42.58672056 70.03314198 -42.5625 65.625 C-41.73238952 60.52327937 -38.84423908 56.92474071 -35.83666992 52.83178711 C-27.6626327 41.6299685 -23.47826459 29.16790556 -22.8125 15.375 C-22.50236987 10.06182724 -22.16238603 6.66238603 -18.25 2.75 C-12.5082116 -1.85508918 -6.97998367 -2.68460911 0 0 Z "
    fill="#010101" transform="translate(611.25,699.25)" />
</svg>